<svg width="46" height="45" viewBox="0 0 46 45" fill="none" xmlns="http://www.w3.org/2000/svg">
<path d="M5.15884 38.0744L3.95269 39.2773L3.39761 38.7237L4.60376 37.5208L5.15884 38.0744ZM5.33397 38.2479L4.12782 39.4509L4.68291 40.0045L5.88905 38.8016L5.33397 38.2479ZM6.06478 38.9745L4.85856 40.1775L5.41372 40.7312L6.61994 39.5282L6.06478 38.9745ZM5.5896 40.9078L6.14468 41.4616L7.35113 40.2587L6.79605 39.7049L5.5896 40.9078ZM46 1.66375C45.9984 2.46504 45.4805 3.13342 44.711 3.3269L44.4923 3.38193C44.294 3.43185 44.1227 3.56237 44.0223 3.73988L41.4604 8.26928C41.2537 8.60864 40.8902 8.8112 40.4876 8.8112C40.312 8.8112 40.1418 8.77281 39.9814 8.69725C39.766 8.59575 39.5254 8.54215 39.2857 8.54215C38.851 8.54215 38.4422 8.71097 38.1348 9.01757L37.5334 9.61736L17.9222 29.5954C17.6731 30.1517 17.7109 30.5986 18.0369 30.9236C18.504 31.3897 19.3153 31.3505 20.5173 30.8038C20.5647 30.7834 20.6299 30.7522 20.7239 30.7053C21.1069 30.5184 21.5028 30.5263 21.842 30.7263C22.245 30.964 22.5117 31.4559 22.538 32.0099C22.5696 32.6752 22.3183 33.2503 21.7475 33.8196C21.0802 34.4852 19.5445 35.2365 18.4321 35.6779C17.3382 36.1124 16.5284 37.0501 16.266 38.186C15.8696 39.9064 15.2972 41.2672 14.5646 42.2308C14.3244 42.6361 14.0321 43.0117 13.6954 43.3474C12.6271 44.413 11.2069 44.9999 9.69608 45C9.69593 45 9.6954 45 9.69518 45C8.18462 45.0002 6.76471 44.4135 5.69671 43.3482L1.6569 39.319C0.588379 38.2534 -7.51562e-05 36.8366 7.19959e-09 35.3296C0.000150334 33.8229 0.588529 32.4063 1.6569 31.3409C1.96958 31.029 2.31654 30.7559 2.69288 30.5253L2.67627 30.5098L3.19414 30.2504C3.59499 30.0588 4.01515 29.9146 4.44366 29.8214L6.89038 28.9836C8.53804 28.4186 9.81318 27.1644 10.3887 25.5429C11.1488 23.3996 12.143 21.9327 13.4281 21.0584C13.4483 21.0447 13.4873 21.0146 13.5425 20.9726C15.9589 19.1376 17.6305 18.7268 18.5112 19.7513C18.6468 19.9092 18.7063 20.1077 18.6833 20.3254C18.6042 21.0746 17.4775 22.0284 16.2718 22.9475C16.1675 23.0269 16.0776 23.0955 16.0367 23.1296C15.7356 23.3803 15.4175 23.9317 15.3919 24.5007C15.3748 24.8783 15.4858 25.1891 15.7216 25.4243C15.9284 25.6305 16.2119 25.7382 16.568 25.7462L35.2573 7.62062C35.4295 7.45435 35.5581 7.24655 35.6296 7.01926L35.7474 6.64526C35.8744 6.24218 36.1419 5.89974 36.5017 5.678L36.883 5.37867L36.5611 4.93428C36.4342 4.75902 36.4736 4.51426 36.6494 4.38764C36.8251 4.26111 37.0707 4.30039 37.1975 4.47573L37.5004 4.89403L38.6839 3.965L38.3614 3.51986C38.2344 3.34459 38.274 3.09984 38.4498 2.97322C38.6254 2.84668 38.871 2.88597 38.9978 3.06131L39.3013 3.48035L40.4809 2.5544L40.1399 2.08355C40.0129 1.90828 40.0525 1.66353 40.2281 1.53691C40.4041 1.41037 40.6493 1.44965 40.7762 1.625L41.0983 2.06968L42.2807 1.14155L41.9337 0.662382C41.8067 0.487116 41.8462 0.242359 42.022 0.115744C42.1976 -0.0107948 42.4432 0.0284863 42.57 0.203827L42.8981 0.65676L43.1913 0.426545C43.5275 0.149403 43.9257 0 44.336 0C44.4788 0 44.6224 0.0182163 44.7627 0.0540491C45.5159 0.246257 46.0014 0.878054 46 1.66375ZM17.4818 31.4773C17.2127 31.209 17.0513 30.8908 16.9962 30.5388L16.2045 31.3455L13.5375 28.6854L15.8786 26.4151C15.6063 26.3229 15.3661 26.1768 15.1668 25.978C14.7741 25.5863 14.5809 25.0635 14.6078 24.4656C14.6404 23.741 15.0125 22.9625 15.5337 22.5285C15.5876 22.4837 15.6747 22.4172 15.7952 22.3253C17.7105 20.8653 17.8998 20.3776 17.9035 20.2476C17.358 19.6432 15.944 20.1333 14.0184 21.5956C13.9471 21.6498 13.8965 21.6878 13.8707 21.7053C12.7443 22.4716 11.8218 23.8507 11.1291 25.8041C10.4731 27.6522 9.02126 29.0811 7.14563 29.7244L4.63127 30.5822C4.27838 30.6574 3.93142 30.7729 3.59897 30.9259L3.52764 30.9607C3.03743 31.1986 2.59479 31.5128 2.21213 31.8945C1.29206 32.8121 0.785307 34.0322 0.785232 35.3297C0.785232 36.6274 1.29191 37.8475 2.21206 38.7651L6.25179 42.7943C7.17157 43.7115 8.39447 44.2168 9.69533 44.2168C9.69548 44.2168 9.6957 44.2168 9.69593 44.2168C10.9971 44.2166 12.2201 43.7112 13.1403 42.7936C13.4358 42.4988 13.6915 42.1688 13.9003 41.8125L13.9291 41.7635L13.9477 41.7461C14.7705 40.6576 15.2462 39.1159 15.501 38.0104C15.8211 36.6239 16.8084 35.48 18.1417 34.9503C19.4731 34.4221 20.7277 33.7296 21.1924 33.2659C21.6068 32.8525 21.7748 32.4881 21.7539 32.0469C21.74 31.7577 21.6178 31.5039 21.4423 31.4003C21.3339 31.3362 21.2128 31.3384 21.0722 31.4072C20.9649 31.4606 20.8912 31.4958 20.836 31.5195C20.2788 31.773 18.5613 32.554 17.4818 31.4773ZM45.2149 1.66218C45.2155 1.33144 45.0459 0.934501 44.5682 0.81261C44.2642 0.734872 43.9569 0.811561 43.6842 1.03608L36.9489 6.32314L36.9271 6.33603C36.7213 6.4586 36.5683 6.65148 36.4966 6.87952L36.3787 7.25352C36.268 7.60472 36.0693 7.92572 35.8042 8.18202L14.6555 28.6932L16.1985 30.232L36.9751 9.06645L37.5794 8.46366C38.0352 8.00923 38.6411 7.75893 39.2855 7.75893C39.6404 7.75893 39.9971 7.83854 40.3166 7.98914C40.4871 8.06958 40.6931 8.0156 40.7866 7.86687L43.3383 3.35494C43.5439 2.99136 43.8946 2.72442 44.3004 2.62239L44.5192 2.56737C45.0317 2.43873 45.2142 1.99929 45.2149 1.66218ZM11.3569 37.3007L8.7512 34.7019L10.2473 33.2098L12.8529 35.8085L11.3569 37.3007ZM11.3568 36.1932L11.7425 35.8085L10.2472 34.3171L9.86151 34.7018L11.3568 36.1932ZM11.8635 34.4374L9.2578 31.8386L10.7539 30.3466L13.3595 32.9454L11.8635 34.4374ZM11.8634 33.3301L12.2491 32.9454L10.7538 31.4539L10.3681 31.8386L11.8634 33.3301ZM13.8626 40.4222C13.9313 41.0285 13.4927 41.5776 12.8847 41.6463C12.843 41.6511 12.8009 41.6534 12.7591 41.6534C12.1946 41.6533 11.7208 41.2309 11.6574 40.671C11.6242 40.3773 11.7075 40.0882 11.8922 39.857C12.0769 39.6258 12.3408 39.4803 12.6353 39.447C12.6769 39.4423 12.7191 39.4399 12.7609 39.4399C13.3253 39.4399 13.7989 39.8623 13.8626 40.4222ZM13.0825 40.5103C13.0639 40.3465 12.9257 40.223 12.7609 40.223C12.7485 40.223 12.7361 40.2236 12.7235 40.225C12.6374 40.2347 12.5602 40.2773 12.5062 40.345C12.4522 40.4125 12.4278 40.4971 12.4376 40.583C12.4562 40.7468 12.5943 40.8704 12.7591 40.8704C12.7713 40.8704 12.7839 40.8698 12.7963 40.8684C12.9743 40.8483 13.1026 40.6875 13.0825 40.5103ZM12.0293 42.3952C12.098 43.0015 11.6593 43.5506 11.0513 43.6192C11.0097 43.624 10.9675 43.6263 10.9258 43.6263C10.3613 43.6263 9.88752 43.2039 9.82416 42.644C9.79093 42.3503 9.87422 42.0612 10.0589 41.83C10.2436 41.5988 10.5075 41.4532 10.802 41.4199C10.8437 41.4152 10.8858 41.4129 10.9276 41.4129C11.492 41.4129 11.9656 41.8352 12.0293 42.3952ZM11.249 42.4831C11.2305 42.3193 11.0922 42.1958 10.9275 42.1958C10.9151 42.1958 10.9028 42.1964 10.89 42.1978C10.804 42.2075 10.7267 42.2501 10.6728 42.3178C10.6187 42.3854 10.5944 42.47 10.6041 42.5558C10.6227 42.7197 10.7608 42.8432 10.9256 42.8432C10.938 42.8432 10.9505 42.8426 10.963 42.8412C11.1409 42.8211 11.2692 42.6606 11.249 42.4831Z" fill="#3D3D3D"/>
</svg>
