<svg width="50" height="48" viewBox="0 0 50 48" fill="none" xmlns="http://www.w3.org/2000/svg">
<path d="M49.8459 40.5534L41.3608 33.1535V7.43223C45.2519 7.01755 49.0411 5.72695 48.8718 4.01896C48.8047 3.34353 48.1698 2.82663 46.9847 2.48256C45.9871 2.19302 44.6514 2.03988 43.1219 2.03988C42.5493 2.03988 41.9591 2.06259 41.3608 2.10566V0.946948C41.3608 0.698565 41.1594 0.497183 40.9111 0.497183C40.6627 0.497183 40.4613 0.698565 40.4613 0.946948V2.18583C36.5701 2.60051 32.781 3.89123 32.9504 5.59921C33.0176 6.27465 33.6523 6.79154 34.8373 7.1355C35.8348 7.42504 37.1704 7.57829 38.6999 7.57829C38.7001 7.57829 38.7001 7.57829 38.7002 7.57829C39.2728 7.57829 39.8629 7.55558 40.4613 7.5124V33.1535L35.6409 37.3569C35.6895 36.9408 35.7152 36.5178 35.7152 36.0888C35.7152 36.0173 35.7152 33.0644 35.7152 33.0644C35.7152 30.5791 34.8771 28.2866 33.4698 26.4526V23.0813H39.7563C40.0047 23.0813 40.206 22.8799 40.206 22.6315V18.0124C40.206 17.764 40.0047 17.5626 39.7563 17.5626H35.9138C35.9759 17.4132 35.9937 17.2544 35.9462 17.087L35.9465 17.0868L34.456 11.8288C34.2702 11.173 33.3102 11.1474 32.6051 11.1861C31.7446 11.2326 30.6472 11.435 29.5152 11.7558C28.7549 11.9714 24.9807 13.1122 25.3486 14.4103L25.7208 15.7234H23.8815L24.1672 14.2121C24.4645 12.6382 19.398 11.6333 18.8192 11.524C18.2405 11.4147 13.1578 10.5008 12.8603 12.0748L12.1853 15.6456C11.1667 15.6795 10.2257 15.7448 9.45433 15.8346V9.4049L10.7401 8.13184C10.9036 8.16085 11.0679 8.18885 11.2332 8.2155C12.8206 8.4722 14.4098 8.60781 15.8291 8.60781C17.3314 8.60781 18.6257 8.45781 19.5721 8.17401C20.6961 7.83691 21.3221 7.31945 21.4325 6.63615C21.586 5.68613 20.6697 4.70879 18.7826 3.80971C17.0811 2.99912 14.7613 2.32908 12.2506 1.92328C12.231 1.92013 12.2113 1.91743 12.1917 1.91428V0.946836C12.1917 0.698453 11.9903 0.49707 11.742 0.49707C11.4936 0.49707 11.2922 0.698453 11.2922 0.946836V1.78419C10.0297 1.61867 8.78789 1.53086 7.6547 1.53086C6.15237 1.53086 4.85806 1.68085 3.91164 1.96466C2.78768 2.30175 2.16172 2.81921 2.0513 3.50252C1.89782 4.45253 2.8141 5.42988 4.70121 6.32896C6.04319 6.9683 7.77052 7.51949 9.67202 7.92326L2.78588 14.7413C2.60946 14.9161 2.608 15.2008 2.78273 15.3773C2.87066 15.4662 2.98659 15.5107 3.1024 15.5107C3.21675 15.5107 3.33111 15.4673 3.41881 15.3806L8.55491 10.2953V15.9637C7.64065 16.1259 7.08789 16.3513 7.08789 16.8457V27.231C7.08789 27.6694 7.48807 27.9236 8.55491 28.1136V33.2267L0.154187 40.5534C-0.0330284 40.7167 -0.0524807 41.0008 0.110784 41.188C0.199725 41.29 0.324423 41.3422 0.45002 41.3422C0.554928 41.3422 0.660173 41.3058 0.745404 41.2314L6.42088 36.2818L8.55491 37.4306V38.5847C8.55491 38.8331 8.75629 39.0345 9.00468 39.0345C9.25306 39.0345 9.45444 38.8331 9.45444 38.5847V37.5213L11.7569 36.2819L14.1932 38.4067C14.1933 38.4075 14.1935 38.4083 14.1937 38.4089L11.5689 46.9204C11.4957 47.1578 11.6287 47.4095 11.8662 47.4827C11.9104 47.4963 11.9549 47.5029 11.9989 47.5029C12.191 47.5029 12.3689 47.3787 12.4285 47.1856L14.6577 39.9573C16.2212 44.0549 20.1897 46.9744 24.8298 46.9744C29.5169 46.9744 33.5216 43.9966 35.0516 39.8336L37.319 47.1856C37.3786 47.3788 37.5565 47.5029 37.7486 47.5029C37.7925 47.5029 37.8371 47.4963 37.8813 47.4827C38.1187 47.4095 38.2518 47.1578 38.1786 46.9204L35.6066 38.5805L38.243 36.2816L40.4615 37.4758V38.67C40.4615 38.9184 40.6629 39.1198 40.9113 39.1198C41.1597 39.1198 41.361 38.9184 41.361 38.67V37.4758L43.5794 36.2817L49.2549 41.2313C49.3401 41.3057 49.4454 41.3421 49.5503 41.3421C49.6758 41.3421 49.8006 41.2899 49.8895 41.1879C50.0525 41.0008 50.0331 40.7167 49.8459 40.5534ZM5.08823 5.51713C3.40835 4.71677 2.88067 4.00918 2.93947 3.64633C3.03707 3.04218 4.68816 2.4305 7.65482 2.4305C9.02683 2.4305 10.5665 2.56217 12.1072 2.81123C14.5361 3.20399 16.7693 3.84704 18.3958 4.62187C20.0757 5.42223 20.6033 6.12982 20.5445 6.49267C20.4469 7.09682 18.7958 7.7085 15.8292 7.7085C14.5025 7.7085 13.0188 7.58425 11.5291 7.35094L12.1917 6.69484V5.06939C12.1917 4.82101 11.9903 4.61962 11.742 4.61962C11.4936 4.61962 11.2922 4.82101 11.2922 5.06939V6.3194L10.4412 7.16192C8.37815 6.76545 6.50342 6.19133 5.08823 5.51713ZM8.55491 36.4089L7.14523 35.65L8.55491 34.4205V36.4089ZM8.55491 27.2002C8.29607 27.1497 8.10447 27.0985 7.98742 27.0495V17.6038C8.15563 17.6497 8.34689 17.6895 8.55491 17.7264V27.2002ZM37.9607 18.4621H39.3066V22.1816H37.9607V18.4621ZM37.0612 18.4621V22.1816H29.6205V20.2131C30.2832 20.1157 31.0235 19.9551 31.7791 19.7409C32.9108 19.42 33.951 19.0165 34.708 18.6047C34.7894 18.5604 34.8741 18.5128 34.9591 18.4621H37.0612ZM32.5703 23.0812V25.4213C31.6006 24.4398 30.4474 23.64 29.1652 23.0812H32.5703ZM31.5338 18.8753C30.3097 19.2223 29.1427 19.4212 28.3319 19.4212C28.098 19.4212 27.9387 19.404 27.8329 19.3843C28.2072 19.0504 29.3504 18.4185 31.2514 17.8797C32.4755 17.5327 33.6425 17.3338 34.4533 17.3338C34.6872 17.3338 34.8465 17.351 34.9523 17.3707C34.5782 17.7047 33.4352 18.3364 31.5338 18.8753ZM28.7209 20.3085V22.1815H27.375V20.1877C27.725 20.3197 28.1421 20.3208 28.332 20.3208C28.332 20.3208 28.332 20.3208 28.3321 20.3208C28.4548 20.3208 28.5851 20.3164 28.7209 20.3085ZM34.8304 16.4474C34.6761 16.4347 34.5406 16.4343 34.4534 16.4343C33.5631 16.4343 32.3067 16.6457 31.0063 17.0143C30.4777 17.164 28.4941 17.7612 27.4563 18.5471L26.9109 16.6229H27.4813C27.7297 16.6229 27.931 16.4215 27.931 16.1731C27.931 15.9247 27.7297 15.7233 27.4813 15.7233H26.7175C27.008 15.4111 28.1702 14.7324 30.1962 14.158C32.3474 13.5481 33.7341 13.549 34.0477 13.6868L34.8304 16.4474ZM33.612 12.1494L33.7754 12.7259C33.5272 12.7053 33.2707 12.7105 33.0409 12.7228C32.8309 12.7342 32.6064 12.7552 32.371 12.7846L32.184 12.1251C32.9456 12.0411 33.4397 12.0743 33.612 12.1494ZM29.7606 12.6212C30.3242 12.4614 30.8339 12.3443 31.2872 12.2599L31.4769 12.9287C30.9886 13.0227 30.4741 13.1443 29.9511 13.2926C29.3725 13.4565 28.8183 13.6423 28.3132 13.8396L28.1242 13.1728C28.587 12.9882 29.131 12.7996 29.7606 12.6212ZM27.2932 13.5402L27.4731 14.1748C27.4752 14.1823 27.4787 14.1892 27.4813 14.1965C27.3191 14.2733 27.1658 14.351 27.0226 14.4289C26.8205 14.5389 26.5994 14.6691 26.3989 14.8168L26.2355 14.2404C26.335 14.0972 26.6891 13.839 27.2932 13.5402ZM25.2791 16.6229H25.9758L26.4754 18.3853V22.3049C26.083 22.245 25.6839 22.2056 25.279 22.189V16.6229H25.2791ZM34.6893 31.4787C32.9504 27.7746 29.185 25.2031 24.8296 25.2031C20.4736 25.2031 16.7077 27.7754 14.9691 31.4802C15.7306 26.7243 19.8621 23.0786 24.8299 23.0786C29.7967 23.0786 33.9274 26.7235 34.6893 31.4787ZM24.3796 16.6229V22.189C23.0343 22.244 21.7518 22.5454 20.5746 23.0472V21.7753C22.031 21.7566 22.7971 21.4577 22.9099 20.8615C22.9099 20.8613 22.9099 20.8613 22.9099 20.8612L22.9103 20.8613L23.7116 16.6229H24.3796ZM22.8009 13.7247C23.063 13.8746 23.2209 14.0027 23.2744 14.0928L23.1797 14.5935C23.017 14.4838 22.8464 14.3889 22.6903 14.3102L22.8009 13.7247ZM19.0184 12.4802C20.2784 12.7381 21.2585 13.044 21.9604 13.3275L21.8444 13.9412C21.0166 13.6216 19.9964 13.3329 18.8996 13.1081L19.0184 12.4802ZM15.0801 12.0595C15.8212 12.04 16.8477 12.101 18.1339 12.3154L18.0153 12.9433C16.9017 12.7578 15.8435 12.663 14.9646 12.6705L15.0801 12.0595ZM13.7352 12.2896C13.8018 12.2379 13.9407 12.1878 14.148 12.1474L14.0392 12.7225C13.9102 12.7385 13.7749 12.7603 13.6405 12.7903L13.7352 12.2896ZM13.4494 13.8023C13.7431 13.5711 15.4663 13.3713 18.3664 13.9195C21.2676 14.4679 22.7992 15.283 22.9883 15.6055L22.9661 15.7234H22.0721C21.8237 15.7234 21.6223 15.9248 21.6223 16.1732C21.6223 16.4216 21.8237 16.623 22.0721 16.623H22.7961L22.2083 19.7318C21.8616 19.4979 21.4776 19.3312 21.2778 19.2447C20.3058 18.8236 18.9864 18.4433 17.5627 18.1741C16.3149 17.9383 15.0797 17.8084 14.0843 17.8084C13.5125 17.8084 13.042 17.8494 12.6689 17.9316L13.4494 13.8023ZM14.0843 18.708C15.0252 18.708 16.2012 18.8322 17.3955 19.058C20.1234 19.5737 21.6412 20.3253 21.9696 20.6811C21.791 20.7625 21.3386 20.8776 20.4292 20.8776C19.4882 20.8776 18.3121 20.7534 17.1179 20.5276C14.3902 20.012 12.8723 19.2603 12.5439 18.9046C12.7226 18.8231 13.1749 18.708 14.0843 18.708ZM9.45444 16.741C10.1135 16.6606 10.9698 16.5909 12.0142 16.5516L11.904 17.1346C10.9095 17.0947 10.0901 17.027 9.45444 16.9495V16.741ZM9.45444 17.8559C9.73307 17.8882 10.0333 17.9173 10.3513 17.9429V18.5681C10.3513 18.8165 10.5527 19.0179 10.801 19.0179C11.0494 19.0179 11.2508 18.8165 11.2508 18.5681V18.0036C11.4098 18.0124 11.5708 18.0206 11.7352 18.0277L11.6036 18.7238C11.6036 18.7239 11.6036 18.7239 11.6036 18.7241C11.4448 19.5648 12.7928 20.1489 13.2358 20.3408C14.2078 20.7619 15.5271 21.1422 16.9508 21.4114C17.8997 21.5907 18.8407 21.7084 19.6751 21.7546V23.4805C17.929 24.4233 16.4679 25.8282 15.4581 27.5316C14.9257 27.5495 14.3802 27.559 13.8312 27.559C11.9945 27.559 10.4936 27.4625 9.45444 27.3368V17.8559ZM9.45444 36.4996V34.2737L11.0324 35.6501L9.45444 36.4996ZM13.9434 33.0643C13.9434 33.0643 13.9439 36.0165 13.9439 36.0887C13.9439 36.4065 13.9584 36.7207 13.9852 37.0316L9.45444 33.08V28.2427C10.6445 28.382 12.191 28.4586 13.8312 28.4586C14.2146 28.4586 14.5963 28.4537 14.9737 28.4451C14.3134 29.8482 13.9434 31.4137 13.9434 33.0643ZM24.8296 46.0749C19.3231 46.0749 14.8433 41.5951 14.8433 36.0887C14.8433 30.5823 19.3231 26.1026 24.8296 26.1026C30.3359 26.1026 34.8157 30.5823 34.8157 36.0887C34.8157 41.5951 30.3359 46.0749 24.8296 46.0749ZM40.4613 36.4543L38.9672 35.6499L40.4613 34.347V36.4543ZM40.9111 4.35932C40.6627 4.35932 40.4613 4.5607 40.4613 4.80909V6.61119C39.8621 6.65594 39.272 6.67876 38.7002 6.67876C38.7001 6.67876 38.7 6.67876 38.6999 6.67876C35.1547 6.67865 33.8819 5.87638 33.8456 5.51038C33.7765 4.81448 36.4902 3.48261 40.7376 3.06107C41.5505 2.98034 42.3527 2.93952 43.1219 2.93952C46.6674 2.93952 47.9403 3.7419 47.9767 4.1079C48.0441 4.78862 45.4487 6.07698 41.3608 6.52753V4.80909C41.3608 4.5607 41.1594 4.35932 40.9111 4.35932ZM41.3608 36.4543V34.3471L42.8548 35.65L41.3608 36.4543Z" fill="#3D3D3D"/>
</svg>
