<svg width="47" height="49" viewBox="0 0 47 49" fill="none" xmlns="http://www.w3.org/2000/svg">
<path fill-rule="evenodd" clip-rule="evenodd" d="M42.0908 2.7716C41.8154 2.92338 41.5117 3.09123 41.19 3.26881L40.6984 2.24153C40.579 1.99329 40.29 1.89199 40.0519 2.01535C39.8141 2.1391 39.7177 2.44116 39.836 2.68939L40.3373 3.73801C40.0393 3.90175 39.736 4.06848 39.4362 4.23335L38.9941 3.30922C38.8757 3.06099 38.5856 2.96081 38.3475 3.08417C38.1094 3.20791 38.0133 3.50997 38.1317 3.7582L38.5828 4.70029C38.2658 4.87412 37.9613 5.04011 37.6799 5.19375L37.2897 4.37804C37.171 4.1298 36.882 4.02962 36.6439 4.15298C36.4062 4.27672 36.3086 4.57804 36.4273 4.82589L36.8243 5.65582C36.6141 5.76909 36.437 5.86367 36.3022 5.93395C35.7317 6.23227 35.4832 6.59901 35.3827 6.93252C35.2798 7.27907 35.3318 7.61664 35.4433 7.89663C35.4742 7.97401 35.51 8.04654 35.5455 8.11271L20.5992 23.7334C20.3754 23.7648 19.7608 23.7767 19.1365 23.1248C18.2329 22.1804 18.5169 21.2686 18.8858 20.4982C19.0024 20.2548 19.2319 20.0178 19.4642 19.7748C19.7579 19.4675 20.0623 19.1568 20.2628 18.8495C20.4883 18.5041 20.5923 18.1516 20.5403 17.805C20.5037 17.562 20.3919 17.3127 20.1588 17.0697C20.1588 17.0697 18.5283 15.2113 15.0465 18.8506C13.973 19.9726 13.5165 21.1819 13.0242 22.4448C12.577 23.5921 12.0951 24.7842 10.9563 25.9746C10.1469 26.8202 8.75955 27.2191 7.26143 27.7698C5.62129 28.3713 3.85457 29.1227 2.43603 30.6042C1.333 31.7575 0.332965 33.3949 0.37923 35.5565C0.423336 37.647 1.45931 40.2657 4.48173 43.424C8.11486 47.2218 10.754 48.2797 12.7205 48.0828C14.0935 47.946 15.1736 47.2099 16.0696 46.2738C17.487 44.7919 18.2057 42.9459 18.7819 41.2322C19.308 39.6662 19.6906 38.2156 20.4999 37.3689C21.1321 36.7087 21.6656 36.4414 22.315 36.1281C23.0351 35.7816 23.8867 35.3879 25.1141 34.4716C26.8669 33.1628 27.3255 32.0618 27.39 31.3228C27.471 30.4054 26.9844 29.9022 26.9844 29.9022C26.9816 29.8992 26.9784 29.895 26.9755 29.8921C26.5567 29.4543 25.9747 29.4704 25.4206 29.7336C24.8078 30.0236 24.2487 30.6042 24.2487 30.6042C23.6976 31.1811 22.7255 31.1497 21.8631 30.2487C21.0183 29.3657 21.184 28.8434 21.1983 28.8034L38.9041 10.2992C39.281 9.90629 39.892 9.90629 40.2677 10.2992C40.3581 10.3934 40.4804 10.4469 40.6087 10.4469C40.7368 10.4469 40.859 10.3934 40.9498 10.2992C42.2571 8.93285 42.4992 7.7335 43.8248 5.32857C44.5495 5.7125 45.4571 5.58877 46.062 4.95623C46.8136 4.17042 46.8136 2.89603 46.062 2.11021C45.3406 1.3558 44.3932 1.49973 43.4501 2.02086C43.4501 2.02086 43.2611 2.12554 42.9431 2.30124L42.4027 1.17223C42.284 0.923999 41.995 0.822696 41.7573 0.947177C41.5192 1.07055 41.422 1.37186 41.5403 1.62009L42.0908 2.7716ZM19.7199 24.6513C19.3326 24.5327 18.8923 24.2916 18.4541 23.8337C17.9259 23.2811 17.6774 22.7315 17.5935 22.2063C17.4712 21.4388 17.7093 20.7068 18.0234 20.0497C18.2662 19.5423 18.8625 19.0261 19.2875 18.521C19.5005 18.2679 19.721 18.0335 19.4772 17.7785C19.4772 17.7785 18.3896 16.7789 15.7282 19.5595C14.7572 20.5752 14.362 21.6799 13.917 22.822C13.4265 24.0796 12.8858 25.3795 11.6383 26.6834C10.9125 27.442 9.78902 27.9141 8.5057 28.381C6.76009 29.0169 4.69797 29.663 3.11805 31.3141C2.1764 32.2984 1.30258 33.6877 1.34132 35.5341C1.38256 37.4507 2.39157 39.8183 5.16347 42.7144C8.48174 46.1829 10.8319 47.2625 12.6288 47.0827C13.702 46.9755 14.549 46.4057 15.264 45.6894C14.9585 45.6524 14.653 45.5066 14.365 45.2045C13.9989 44.8217 13.8167 44.2793 13.7368 43.6635C13.6403 42.9282 13.6923 42.0773 13.5528 41.3925C13.3958 40.6209 13.1239 39.9981 12.9138 39.5973L12.3204 40.2179C12.23 40.3125 12.1074 40.3655 11.9794 40.3655C11.8514 40.3655 11.7287 40.3125 11.6384 40.2179L7.54798 35.9438C7.36044 35.7479 7.36044 35.4305 7.54798 35.2346L8.32288 34.4252C8.16474 34.0484 7.97792 33.4178 8.07044 32.6812C8.16761 31.9096 8.56277 31.0057 9.66899 30.178C10.9107 29.2498 11.7954 28.8752 12.5487 28.5495C13.2182 28.2594 13.7733 28.0164 14.4055 27.3562C14.8961 26.8429 15.1406 26.2362 15.4702 25.7222C15.8815 25.0803 16.3942 24.5528 17.399 24.349C18.0359 24.2204 18.4955 24.5187 18.8115 24.9434C18.9062 25.0709 18.9861 25.2118 19.0517 25.3494L19.7199 24.6513ZM20.3309 29.709L13.0005 37.3705L13.6836 38.0845C13.8707 38.2804 13.8707 38.5978 13.6836 38.7937L13.619 38.861C13.8754 39.3051 14.2792 40.1238 14.495 41.1837C14.6173 41.7845 14.6065 42.5045 14.6557 43.1755C14.6944 43.6936 14.7503 44.186 15.0469 44.4955C15.3603 44.823 15.7214 44.6641 16.0047 44.4735C16.26 44.3004 16.4701 44.0794 16.586 43.946C17.3411 42.636 17.7689 41.2035 18.1928 39.9321C18.6399 38.5919 19.0917 37.4177 19.8175 36.6595C20.5486 35.8958 21.1596 35.5776 21.9102 35.2169C22.5904 34.8894 23.394 34.5197 24.5529 33.655C27.0927 31.7586 26.3365 30.6624 26.2845 30.5933C26.2354 30.548 26.1726 30.545 26.1099 30.5529C26.0138 30.5641 25.9162 30.6011 25.8201 30.6464C25.3529 30.8684 24.9308 31.3144 24.9308 31.3144C24.0692 32.2146 22.5276 32.366 21.1808 30.9578C20.7228 30.4796 20.4675 30.0609 20.3309 29.7091L20.3309 29.709ZM12.6612 38.4393L11.9792 39.1526L8.56936 35.5896L9.25246 34.8763L12.6612 38.4393ZM37.2003 9.94369L11.9782 36.3022L12.3203 36.66L37.5415 10.3015C37.5415 10.3015 37.4009 10.1538 37.2005 9.94369H37.2003ZM36.177 8.87526L10.9558 35.2329L11.2979 35.5906L36.5191 9.23207L36.177 8.87526ZM18.3179 26.1181C18.2813 26.0018 18.2272 25.8601 18.1533 25.7215C18.0386 25.5114 17.8747 25.2766 17.5839 25.3357C16.7405 25.5065 16.4102 26.0258 16.0846 26.5933C15.8042 27.0815 15.5296 27.6038 15.0882 28.0659C14.3474 28.8393 13.7048 29.1369 12.9184 29.4775C12.2159 29.7818 11.3894 30.1284 10.2312 30.9953C9.41902 31.6027 9.09807 32.2457 9.02675 32.8121C8.98444 33.1478 9.02675 33.4521 9.09058 33.6921C9.14257 33.673 9.19744 33.6629 9.25337 33.6629C9.38138 33.6629 9.50366 33.7153 9.59438 33.8106L10.2757 34.522L18.3179 26.1181ZM38.2231 9.59016C38.8542 8.92996 39.8166 8.82342 40.5546 9.27165C41.6357 7.99689 41.8738 6.76241 43.2622 4.34371C43.3393 4.211 43.4691 4.12239 43.6169 4.10333C43.7642 4.08426 43.9116 4.13772 44.0167 4.24726C44.3932 4.63979 45.0031 4.63979 45.38 4.24726C45.7566 3.85323 45.7566 3.21357 45.38 2.81956C44.9713 2.39264 44.4356 2.61282 43.9019 2.90816C43.9019 2.90816 38.0997 6.11833 36.7343 6.8316C36.4868 6.96133 36.347 7.08581 36.3036 7.23161C36.2631 7.36695 36.3212 7.49554 36.3721 7.59311C36.4338 7.71274 38.2231 9.59016 38.2231 9.59016Z" fill="#3D3D3D"/>
</svg>
