<svg width="29" height="44" viewBox="0 0 29 44" fill="none" xmlns="http://www.w3.org/2000/svg">
<path d="M21.6562 0C25.3985 0 28.4311 3.03333 28.4311 6.77488C28.4311 10.5163 25.3985 13.5494 21.6562 13.5494C17.9153 13.5494 14.8818 10.5163 14.8818 6.77488C14.8817 3.03333 17.9152 0 21.6562 0Z" fill="#3D3D3D"/>
<path d="M6.9945 25.5176C7.55958 25.5176 8.06101 25.2629 8.40528 24.8679L19.8086 14.3674C17.5452 13.8183 15.6661 12.2823 14.6537 10.2419L5.64499 22.2337C5.31296 22.6973 5.11621 23.1016 5.11621 23.6384C5.11621 24.6757 5.95812 25.5176 6.9945 25.5176Z" fill="#3D3D3D"/>
<path d="M1.51348 35.6109C5.30297 38.5228 11.1283 33.0072 11.346 32.7967C11.4085 32.7421 17.5529 27.3324 20.4173 30.5365C21.0153 31.203 21.2652 31.9747 21.1859 32.8951C20.8846 36.3077 16.1454 40.7307 14.3439 42.1467C13.8942 42.5007 13.8161 43.1531 14.1698 43.6033C14.3743 43.8639 14.6773 43.9999 14.9855 43.9999C15.2083 43.9999 15.4355 43.9266 15.6228 43.7794C15.9174 43.5482 22.8094 38.0875 23.2504 33.0789C23.3831 31.5762 22.9499 30.2559 21.9635 29.1533C20.7008 27.7411 18.3135 26.4798 14.1259 28.4901C11.8334 29.5886 10.0405 31.1826 9.93786 31.2739C8.70593 32.453 4.74525 35.4774 2.77585 33.965C2.34713 33.6357 2.12691 33.2376 2.08065 32.7122C1.92558 30.898 3.84335 28.2863 4.79737 27.1933L6.92224 26.4523C6.92224 26.4523 6.49671 26.4049 5.49475 25.5068C4.55784 24.6649 4.30927 23.7545 4.30927 23.7545L3.35297 25.6974C2.6719 26.4567 -0.237588 29.8943 0.015562 32.8867C0.108367 33.9882 0.626107 34.9305 1.51348 35.6109Z" fill="#3D3D3D"/>
</svg>
