<svg width="46" height="37" viewBox="0 0 46 37" fill="none" xmlns="http://www.w3.org/2000/svg">
<path fill-rule="evenodd" clip-rule="evenodd" d="M42.0833 36.125C44.2464 36.125 45.9999 34.3715 45.9999 32.2083V4.79167C45.9999 2.62855 44.2464 0.875 42.0833 0.875H4.87492C2.7118 0.875 0.958252 2.62855 0.958252 4.79167V32.2083C0.958252 34.3715 2.7118 36.125 4.87492 36.125H42.0833ZM20.5416 4.79167H16.5953V20.4583H14.6374V32.2083H22.4999V20.4583H20.5416V4.79167ZM34.2795 32.2083H42.0833V4.79167H36.2378V20.4583H34.2795V32.2083ZM32.3212 20.4583H30.3628V4.79167H26.4166V20.4583H24.4583V32.2083H32.3212V20.4583ZM12.6791 32.2083V20.4583H10.7203V4.79167H4.87492V32.2083H12.6791Z" fill="#3D3D3D"/>
</svg>
